<svg width="17" height="13" viewBox="0 0 17 13" fill="none" xmlns="http://www.w3.org/2000/svg">
<path d="M3.09282 1.08826H10.4177C11.5687 1.08826 12.5105 1.8546 12.5105 2.79124V6.28234C12.5105 7.21898 11.5687 7.98532 10.4177 7.98532H6.28436L3.40674 10.0289V7.98532H2.46497C1.62785 7.98532 1 7.47443 1 6.83581V2.79124C1 1.8546 1.94177 1.08826 3.09282 1.08826Z" stroke="white" stroke-linecap="round" stroke-linejoin="round"/>
<path d="M5.70844 8.75181C5.70844 9.22013 6.17932 9.6033 6.75484 9.64587L10.365 9.73102L13.2426 11.7746V9.73102H14.1843C14.9692 9.73102 15.6493 9.22013 15.6493 8.53893V4.49436C15.6493 3.55772 14.7075 2.79138 13.5565 2.79138H12.5101" stroke="white" stroke-linecap="round" stroke-linejoin="round"/>
</svg>
