<?xml version="1.0" encoding="iso-8859-1"?>
<!-- Generator: Adobe Illustrator 16.0.0, SVG Export Plug-In . SVG Version: 6.00 Build 0)  -->
<!DOCTYPE svg PUBLIC "-//W3C//DTD SVG 1.1//EN" "http://www.w3.org/Graphics/SVG/1.1/DTD/svg11.dtd">
<svg version="1.1" id="Capa_1" xmlns="http://www.w3.org/2000/svg" xmlns:xlink="http://www.w3.org/1999/xlink" x="0px" y="0px"
	 width="468.873px" height="468.873px" fill="white" viewBox="0 0 468.873 468.873" style="enable-background:new 0 0 468.873 468.873;"
	 xml:space="preserve">
<g>
	<g>
		<path fill="white" d="M369.992,10.059c-48.285,0-88.48,34.613-97.145,80.381H13.25C5.932,90.439,0,96.375,0,103.691v242.48
			c0,7.32,5.932,13.252,13.25,13.252h202.674v86.138c0,5.359,3.227,10.192,8.18,12.244c1.639,0.678,3.361,1.009,5.068,1.009
			c3.447,0,6.838-1.348,9.373-3.883l96.172-95.508h56.975c7.32,0,13.252-5.932,13.252-13.252V201.458
			c37.361-14.121,63.93-50.215,63.93-92.52C468.875,54.33,424.604,10.059,369.992,10.059z M369.992,182.821
			c-40.736,0-73.879-33.143-73.879-73.882c0-40.738,33.143-73.881,73.879-73.881c40.738,0,73.883,33.143,73.883,73.881
			C443.875,149.679,410.73,182.821,369.992,182.821z"/>
		<path fill="white" d="M407.213,71.582c-4.102-4.102-10.75-4.101-14.852,0l-22.371,22.37l-22.371-22.37c-4.102-4.102-10.752-4.102-14.852,0
			c-4.102,4.101-4.102,10.751,0,14.853l22.369,22.37l-22.369,22.371c-4.102,4.101-4.104,10.75,0,14.852
			c4.102,4.102,10.75,4.101,14.852,0l22.371-22.37l22.371,22.37c4.102,4.102,10.75,4.102,14.854,0
			c4.102-4.102,4.102-10.751,0-14.853l-22.371-22.371l22.371-22.371C411.314,82.333,411.314,75.684,407.213,71.582z"/>
	</g>
</g>
<g>
</g>
<g>
</g>
<g>
</g>
<g>
</g>
<g>
</g>
<g>
</g>
<g>
</g>
<g>
</g>
<g>
</g>
<g>
</g>
<g>
</g>
<g>
</g>
<g>
</g>
<g>
</g>
<g>
</g>
</svg>
