<svg width="18" height="14" viewBox="0 0 18 14" fill="none" xmlns="http://www.w3.org/2000/svg">
<path d="M13.8 5.99802L17 5.99802L17 2.74312L13.8 2.74313L13.8 5.99802Z" stroke="url(#paint0_linear_1_16)" stroke-linecap="round" stroke-linejoin="round"/>
<path d="M15.4 6.12769L15.4 12.6375" stroke="url(#paint1_linear_1_16)" stroke-linecap="round" stroke-linejoin="round"/>
<path d="M7.39998 8.60194L10.6 8.60193L10.6 5.34703L7.39997 5.34704L7.39998 8.60194Z" stroke="url(#paint2_linear_1_16)" stroke-linecap="round" stroke-linejoin="round"/>
<path d="M9 9.3826V12.6375" stroke="url(#paint3_linear_1_16)" stroke-linecap="round" stroke-linejoin="round"/>
<path d="M9 1.57083V4.82573" stroke="url(#paint4_linear_1_16)" stroke-linecap="round" stroke-linejoin="round"/>
<path d="M15.4 1.57083V2.22181" stroke="url(#paint5_linear_1_16)" stroke-linecap="round" stroke-linejoin="round"/>
<path d="M1.00002 11.2058L4.20001 11.2058L4.2 7.95094L1.00001 7.95095L1.00002 11.2058Z" stroke="url(#paint6_linear_1_16)" stroke-linecap="round" stroke-linejoin="round"/>
<path d="M2.60004 7.95096L2.60004 1.44116" stroke="url(#paint7_linear_1_16)" stroke-linecap="round" stroke-linejoin="round"/>
<path d="M2.60004 12.5078V11.8568" stroke="url(#paint8_linear_1_16)" stroke-linecap="round" stroke-linejoin="round"/>
<defs>
<linearGradient id="paint0_linear_1_16" x1="15.24" y1="6.51036" x2="15.0532" y2="0.744588" gradientUnits="userSpaceOnUse">
<stop stop-color="#FD749B"/>
<stop offset="1" stop-color="#281AC8"/>
</linearGradient>
<linearGradient id="paint1_linear_1_16" x1="15.5574" y1="9.70807" x2="13.7841" y2="9.71675" gradientUnits="userSpaceOnUse">
<stop stop-color="#FD749B"/>
<stop offset="1" stop-color="#281AC8"/>
</linearGradient>
<linearGradient id="paint2_linear_1_16" x1="8.83998" y1="9.11428" x2="8.65319" y2="3.3485" gradientUnits="userSpaceOnUse">
<stop stop-color="#FD749B"/>
<stop offset="1" stop-color="#281AC8"/>
</linearGradient>
<linearGradient id="paint3_linear_1_16" x1="9.15741" y1="11.1728" x2="7.3843" y2="11.1901" gradientUnits="userSpaceOnUse">
<stop stop-color="#FD749B"/>
<stop offset="1" stop-color="#281AC8"/>
</linearGradient>
<linearGradient id="paint4_linear_1_16" x1="9.15741" y1="3.36102" x2="7.3843" y2="3.37837" gradientUnits="userSpaceOnUse">
<stop stop-color="#FD749B"/>
<stop offset="1" stop-color="#281AC8"/>
</linearGradient>
<linearGradient id="paint5_linear_1_16" x1="15.5574" y1="1.92887" x2="13.7883" y2="2.01542" gradientUnits="userSpaceOnUse">
<stop stop-color="#FD749B"/>
<stop offset="1" stop-color="#281AC8"/>
</linearGradient>
<linearGradient id="paint6_linear_1_16" x1="2.44002" y1="11.7182" x2="2.25322" y2="5.95241" gradientUnits="userSpaceOnUse">
<stop stop-color="#FD749B"/>
<stop offset="1" stop-color="#281AC8"/>
</linearGradient>
<linearGradient id="paint7_linear_1_16" x1="2.75744" y1="5.02155" x2="0.984211" y2="5.03022" gradientUnits="userSpaceOnUse">
<stop stop-color="#FD749B"/>
<stop offset="1" stop-color="#281AC8"/>
</linearGradient>
<linearGradient id="paint8_linear_1_16" x1="2.75744" y1="12.2149" x2="0.988403" y2="12.3014" gradientUnits="userSpaceOnUse">
<stop stop-color="#FD749B"/>
<stop offset="1" stop-color="#281AC8"/>
</linearGradient>
</defs>
</svg>
